# xmcd
#
# Track frame offsets: 
#        150
#        12672
#        22572
#        32893
#        43862
#        54967
#        70393
#        83699
#        96733
#        106128
#        116079
#        129558
#        141704
#        155837
#        174649
#        185393
#        197684
#
# Disc length: 2815 seconds
#
# Revision: 0
# Processed by: cddbd v1.5.2PL0 Copyright (c) Steve Scherf et al.
# Submitted via: ExactAudioCopyFreeDBPlugin 1.0
#
DISCID=f40afd11
DTITLE=Howlin' Wolf - Singles 1961-1962 and Howlin' Wolf Sings The Blues
DTITLE=1962
DYEAR=1900
DGENRE=Blues
TTITLE0=Little Baby
TTITLE1=Down In The Bottom
TTITLE2=Shake For Me
TTITLE3=The Red Rooster
TTITLE4=You'll Be Mine
TTITLE5=Goin' Down Slow
TTITLE6=Just Like I Treat You
TTITLE7=I Ain't Stuperstitious
TTITLE8=Mama's Baby
TTITLE9=Do The Do
TTITLE10=Worried About My Baby
TTITLE11=Brown Skin Woman
TTITLE12=Twisting And Turning
TTITLE13=House Rockin' Boogie
TTITLE14=Keep What You Got
TTITLE15=Dog Me Around
TTITLE16=Back Slide Boogie
EXTD=
EXTT0=
EXTT1=
EXTT2=
EXTT3=
EXTT4=
EXTT5=
EXTT6=
EXTT7=
EXTT8=
EXTT9=
EXTT10=
EXTT11=
EXTT12=
EXTT13=
EXTT14=
EXTT15=
EXTT16=
PLAYORDER=
